<svg viewBox="0 0 170 20" xmlns="http://www.w3.org/2000/svg">
    <path
        d="M91.465 11.28a4.244 4.244 0 01-8.488 0V0h-3.656v11.28a7.9 7.9 0 0015.8 0V0h-3.656v11.28zM5.53 5.277a5.91 5.91 0 018.116.016l2.099-3.025a9.578 9.578 0 10.02 14.675l-2.098-3.04A5.929 5.929 0 115.53 5.277zM50.913 12.885L41.978 0h-3.657v19.182h3.657V6.295l8.935 12.887h3.657V0h-3.657zM59.446 3.657h5.663v15.525h3.657V3.657h5.663V0H59.446zM160.472 3.657h1.99v15.525h3.673V0h-5.663zM20.653 19.182h12.776v-3.658H24.31v-4.105h7.33V7.762h-7.33V3.657h9.12V0H20.653zM108.3 0h-8.286v19.182h3.657v-6.297h2.345l4.364 6.295h4.352l-4.552-6.59a6.455 6.455 0 004.552-6.156h.015A6.464 6.464 0 00108.3 0zm0 9.212h-4.63V3.657h4.63a2.778 2.778 0 010 5.556v-.001zM126.138 7.762L120.765 0H116.4l7.9 11.404v7.778h3.658v-7.778L135.855 0h-4.351zM155.286 9.583l.091-.14a6.06 6.06 0 10-11.09-3.378v.231h3.672c0-.077-.015-.154-.015-.231a2.394 2.394 0 012.391-2.392 2.323 2.323 0 012.408 2.392 4.972 4.972 0 01-.772 1.867c-.201.308-7.793 11.249-7.793 11.249h12.592v-3.657h-5.602l4.118-5.941zM169.637 17.823a.818.818 0 00-.323-.324.953.953 0 00-.91 0 .818.818 0 00-.323.324.984.984 0 000 .925.818.818 0 00.324.324.953.953 0 00.909 0 .818.818 0 00.323-.324.984.984 0 000-.925z"
        fill="#beaf87" fill-rule="evenodd"></path>
</svg>
