<svg width="85" height="44" viewBox="0 0 85 44" xmlns="http://www.w3.org/2000/svg" role="img" class="c-logo__svg"
     aria-label="Orpi">
    <path fill="#e30613"
        d="M81.199.251c-2.03 0-3.676 1.628-3.676 3.635 0 2.008 1.646 3.635 3.676 3.635 2.03 0 3.675-1.627 3.675-3.635 0-2.007-1.646-3.635-3.675-3.635M84.522 32.704c0 .314-.258.569-.576.569H78.45a.572.572 0 0 1-.575-.57V11.659c0-.314.257-.57.575-.57h5.496c.318 0 .576.256.576.57v21.046zM64.221 11.089h-3.91a.572.572 0 0 0-.576.57v3.284c0 1.502 1.232 2.72 2.75 2.72h1.736c2.565 0 4.96 2.031 4.96 4.901 0 3.007-2.569 4.905-4.96 4.905-2.471 0-5.421-1.504-5.421-4.905v-2.182c0-1.502-1.231-2.72-2.75-2.72h-3.322a.572.572 0 0 0-.575.57v24.601c0 .314.257.57.575.57h5.496a.572.572 0 0 0 .576-.57v-10.12c1.558.877 3.793 1.327 5.421 1.327 6.116 0 11.603-4.888 11.603-11.476 0-6.416-5.331-11.475-11.603-11.475M50.252 11.089h-.81c-6.272 0-11.603 5.059-11.603 11.475v10.14c0 .314.257.569.575.569h5.496a.572.572 0 0 0 .575-.57l-.002-10.139c0-2.87 2.395-4.901 4.959-4.901h.81a.572.572 0 0 0 .575-.57v-5.435a.572.572 0 0 0-.575-.57M17.855 31.076c-6.05 0-10.972-4.868-10.972-10.851 0-5.983 4.922-10.851 10.972-10.851s10.971 4.868 10.971 10.85c0 5.984-4.921 10.852-10.971 10.852m.015-28.514C8.016 2.562 0 10.491 0 20.236S8.016 37.91 17.87 37.91c9.854 0 17.87-7.929 17.87-17.674S27.724 2.562 17.87 2.562"></path>
</svg>
