<?xml version="1.0" encoding="utf-8"?>
<!-- Generator: Adobe Illustrator 16.0.0, SVG Export Plug-In . SVG Version: 6.00 Build 0)  -->
<!DOCTYPE svg PUBLIC "-//W3C//DTD SVG 1.1//EN" "http://www.w3.org/Graphics/SVG/1.1/DTD/svg11.dtd">
<svg version="1.1" id="Calque_1" xmlns="http://www.w3.org/2000/svg" xmlns:xlink="http://www.w3.org/1999/xlink" x="0px" y="0px"
	 width="170px" height="60px" viewBox="0 0 170 60" enable-background="new 0 0 170 60" xml:space="preserve">
<g>
	<path fill="#EE1C24" d="M6.285,24.449h1.982c1.109,0,1.6,0.905,1.6,2.924c0,1.79-0.452,2.96-1.6,2.96H6.285V24.449z M0.123,44.898
		h6.162v-6.649h4.072c3.868,0,5.664-5.495,5.664-11.478c0-4.325-0.558-10.765-4.979-10.765H0.123V44.898z"/>
	<path fill="#EE1C24" d="M24.466,28.87c1.152,0,1.782,1.464,1.782,5.013c0,3.354-0.63,4.777-1.782,4.777
		c-1.167,0-1.796-1.424-1.796-4.777C22.669,30.334,23.3,28.87,24.466,28.87 M26.097,44.898h5.437V20.41h-5.437v3.692h-0.029
		c-0.907-3.204-2.274-4.047-3.831-4.047c-3.567,0-5.011,4.659-5.011,12.783c0,8.482,1.595,12.893,5.225,12.893
		c1.342,0,2.979-0.72,3.617-3.711h0.029V44.898L26.097,44.898z"/>
	<path fill="#EE1C24" d="M32.699,20.41h5.282v6.964h0.041c0.427-4.534,0.856-7.319,3.015-7.319c0.744,0,1.168,0.129,1.58,0.247
		V33.76h-1.661c-1.813,0-2.485,1.114-2.485,4.336V44.9h-5.772V20.41L32.699,20.41z"/>
	<path fill="#EE1C24" d="M58.129,35.663c0,5.741-1.089,10.063-6.866,10.063c-5.764,0-6.876-4.324-6.876-10.063V20.41h5.65v14.893
		c0,1.563,0.377,2.863,1.225,2.863c0.873,0,1.223-1.301,1.223-2.863V20.41h5.642v15.255h0.003L58.129,35.663L58.129,35.663z"/>
	<polygon fill="#231F20" points="59.167,16.004 65.517,16.004 67.441,34.052 67.491,34.052 69.401,16.004 75.624,16.004 
		71.831,44.898 63.05,44.898 	"/>
	<path fill="#231F20" d="M81.352,29.646c0.055-2.8,0.737-3.849,1.808-3.849c1.187,0,1.646,1.292,1.646,3.849H81.352z M89.482,35.551
		v-2.152c0-9.781-1.401-13.832-7.088-13.832c-4.384,0-6.792,4.882-6.792,13.59c0,10.267,2.903,12.569,6.792,12.569
		c1.533,0,3.711-0.72,5.853-2.015l1.14-6.722c-2.125,1.101-3.949,2.029-5.346,2.029c-1.484,0-2.464-0.451-2.464-3.477h7.905V35.551z
		"/>
	<path fill="#231F20" d="M91.361,20.41h5.285v4.789h0.021c1.008-3.243,2.326-5.145,4.549-5.145c2.08,0,4.562,1.171,4.562,9.137
		v15.707h-5.709V33.527c0-2.961-0.478-3.924-1.475-3.924c-0.938,0-1.531,0.963-1.531,3.11V44.9h-5.703L91.361,20.41L91.361,20.41z"
		/>
	<path fill="#231F20" d="M115.018,28.87c1.203,0,1.854,1.464,1.854,5.013c0,3.354-0.647,4.777-1.854,4.777
		c-1.181,0-1.797-1.424-1.797-4.777C113.221,30.334,113.837,28.87,115.018,28.87 M116.701,44.898h5.531V15.934h-5.531v8.167h-0.021
		c-0.934-3.203-2.33-4.047-3.908-4.047c-3.637,0-5.111,4.66-5.111,12.782c0,8.482,1.638,12.893,5.354,12.893
		c1.342,0,3.012-0.719,3.67-3.711h0.021L116.701,44.898L116.701,44.898z"/>
	<path fill="#231F20" d="M137.77,35.663c0,5.741-1.063,10.063-6.816,10.063c-5.753,0-6.839-4.324-6.839-10.063V20.41h5.618v14.893
		c0,1.563,0.358,2.863,1.221,2.863c0.852,0,1.188-1.301,1.188-2.863V20.41h5.631v15.253H137.77z"/>
	<circle fill="#EE1C24" cx="142.794" cy="41.613" r="3.338"/>
	<path fill="#EE1C24" d="M149.191,35.409h-1.373v-6.15h1.373v-3.64c0-4.008,0.914-6.008,5.354-6.008
		c1.143,0,2.829,0.133,4.139,0.434v6.375c-0.602-0.165-1.172-0.266-1.771-0.266c-1.228,0-1.886,0.369-1.886,1.937v1.168h3.604v6.15
		h-3.604v9.543h-5.836V35.409L149.191,35.409z"/>
	<path fill="#EE1C24" d="M160.166,29.066h5.23v4.017h0.035c0.418-3.739,0.859-4.319,2.991-4.319c0.729,0,1.17,0.105,1.576,0.199
		v6.809h-1.661c-1.792,0-2.438,0.896-2.438,3.566v5.612h-5.734V29.066L160.166,29.066z"/>
</g>
</svg>
